# xmcd
#
# Track frame offsets: 
#        150
#        18692
#        36214
#        53736
#        71431
#        85188
#        100153
#        117735
#        132737
#        153559
#        168839
#        182866
#
# Disc length: 2629 seconds
#
# Revision: 0
# Processed by: cddbd v1.5.2PL0 Copyright (c) Steve Scherf et al.
# Submitted via: ExactAudioCopy v1.0b4
#
DISCID=a70a430c
DTITLE=Shemekia Copeland - Outskirts of Love
DYEAR=2015
DGENRE=Blues
TTITLE0=Outskirts of Love
TTITLE1=Crossbone Beach
TTITLE2=Devil's Hand
TTITLE3=The Battle Is Over (But The War Goes On)
TTITLE4=Cardboard Box
TTITLE5=Drivin' Out of Nashville
TTITLE6=I Feel a Sin Coming On
TTITLE7=Isn't That So
TTITLE8=Jesus Just Left Chicago
TTITLE9=Long As I Can See the Light
TTITLE10=Wrapped Up In Love Again
TTITLE11=Lord, Help the Poor and Needy
EXTD=
EXTT0=
EXTT1=
EXTT2=
EXTT3=
EXTT4=
EXTT5=
EXTT6=
EXTT7=
EXTT8=
EXTT9=
EXTT10=
EXTT11=
PLAYORDER=
